<!--?xml version="1.0" encoding="us-ascii" standalone="no"?--><svg xmlns="http://www.w3.org/2000/svg" xmlns:xlink="http://www.w3.org/1999/xlink" contentstyletype="text/css" height="372px" preserveAspectRatio="none" style="width:2132px;height:372px;background:#FFFFFF;" version="1.1" viewBox="0 0 2132 372" width="2132px" zoomAndPan="magnify"><defs></defs><g><!--cluster EcoBin-Smart Garbage Management System--><g id="cluster_EcoBin-Smart Garbage Management System"><rect fill="none" height="154" rx="2.5" ry="2.5" style="stroke:#181818;stroke-width:1.0;" width="1978.88" x="148" y="7"></rect><text fill="#000000" font-family="sans-serif" font-size="14" font-weight="bold" lengthAdjust="spacing" textLength="345" x="964.94" y="21.9951">EcoBin-Smart Garbage Management System</text></g><g id="elem_UL"><ellipse cx="248.4325" cy="130.0025" fill="#F1F1F1" rx="63.0625" ry="15.0125" style="stroke:#181818;stroke-width:0.5;"></ellipse><text fill="#000000" font-family="sans-serif" font-size="14" lengthAdjust="spacing" textLength="73" x="208.9325" y="133.7501">User Login</text></g><g id="elem_AS"><ellipse cx="248.4263" cy="60.9953" fill="#F1F1F1" rx="84.4263" ry="19.2853" style="stroke:#181818;stroke-width:0.5;"></ellipse><text fill="#000000" font-family="sans-serif" font-size="14" lengthAdjust="spacing" textLength="129" x="183.805" y="63.8839">Automated Sorting</text></g><g id="elem_SI"><ellipse cx="476.4156" cy="125.0031" fill="#F1F1F1" rx="83.5656" ry="19.1131" style="stroke:#181818;stroke-width:0.5;"></ellipse><text fill="#000000" font-family="sans-serif" font-size="14" lengthAdjust="spacing" textLength="127" x="412.5123" y="127.9874">Sensor Integration</text></g><g id="elem_C"><ellipse cx="714.0963" cy="124.0033" fill="#F1F1F1" rx="94.1163" ry="21.2233" style="stroke:#181818;stroke-width:0.5;"></ellipse><text fill="#000000" font-family="sans-serif" font-size="14" lengthAdjust="spacing" textLength="151" x="638.5963" y="126.8499">Compartmentalization</text></g><g id="elem_SM"><ellipse cx="953.938" cy="123.9956" fill="#F1F1F1" rx="85.728" ry="19.5456" style="stroke:#181818;stroke-width:0.5;"></ellipse><text fill="#000000" font-family="sans-serif" font-size="14" lengthAdjust="spacing" textLength="132" x="887.938" y="126.8423">Sorting Mechanism</text></g><g id="elem_UI"><ellipse cx="1181.5358" cy="124.0032" fill="#F1F1F1" rx="81.8658" ry="18.7732" style="stroke:#181818;stroke-width:0.5;"></ellipse><text fill="#000000" font-family="sans-serif" font-size="14" lengthAdjust="spacing" textLength="123" x="1119.0505" y="127.1763">User Interface (UI)</text></g><g id="elem_FS"><ellipse cx="1405.2658" cy="124.0032" fill="#F1F1F1" rx="81.8658" ry="18.7732" style="stroke:#181818;stroke-width:0.5;"></ellipse><text fill="#000000" font-family="sans-serif" font-size="14" lengthAdjust="spacing" textLength="123" x="1342.7805" y="127.1763">Feedback System</text></g><g id="elem_RM"><ellipse cx="1632.858" cy="123.9956" fill="#F1F1F1" rx="85.728" ry="19.5456" style="stroke:#181818;stroke-width:0.5;"></ellipse><text fill="#000000" font-family="sans-serif" font-size="14" lengthAdjust="spacing" textLength="132" x="1566.858" y="126.8423">Remote Monitoring</text></g><g id="elem_DL"><ellipse cx="1847.9188" cy="123.9958" fill="#F1F1F1" rx="69.3288" ry="16.2658" style="stroke:#181818;stroke-width:0.5;"></ellipse><text fill="#000000" font-family="sans-serif" font-size="14" lengthAdjust="spacing" textLength="91" x="1799.4188" y="127.7433">Data Logging</text></g><g id="elem_ULO"><ellipse cx="2044.0642" cy="124.0028" fill="#F1F1F1" rx="66.8142" ry="15.7628" style="stroke:#181818;stroke-width:0.5;"></ellipse><text fill="#000000" font-family="sans-serif" font-size="14" lengthAdjust="spacing" textLength="84" x="1999.0642" y="127.7504">User Logout</text></g><!--entity U--><g id="elem_U"><ellipse cx="55" cy="31.35" fill="#F1F1F1" rx="8" ry="8" style="stroke:#181818;stroke-width:0.5;"></ellipse><path d="M55,39.35 L55,66.35 M42,47.35 L68,47.35 M55,66.35 L42,81.35 M55,66.35 L68,81.35 " fill="none" style="stroke:#181818;stroke-width:0.5;"></path><text fill="#000000" font-family="sans-serif" font-size="14" lengthAdjust="spacing" textLength="32" x="39" y="95.8451">User</text></g><!--entity SA--><g id="elem_SA"><ellipse cx="55" cy="142.35" fill="#F1F1F1" rx="8" ry="8" style="stroke:#181818;stroke-width:0.5;"></ellipse><path d="M55,150.35 L55,177.35 M42,158.35 L68,158.35 M55,177.35 L42,192.35 M55,177.35 L68,192.35 " fill="none" style="stroke:#181818;stroke-width:0.5;"></path><text fill="#000000" font-family="sans-serif" font-size="14" lengthAdjust="spacing" textLength="98" x="6" y="206.8451">System Admin</text></g><!--entity ESP--><g id="elem_ESP"><ellipse cx="248.43" cy="188.35" fill="#F1F1F1" rx="8" ry="8" style="stroke:#181818;stroke-width:0.5;"></ellipse><path d="M248.43,196.35 L248.43,223.35 M235.43,204.35 L261.43,204.35 M248.43,223.35 L235.43,238.35 M248.43,223.35 L261.43,238.35 " fill="none" style="stroke:#181818;stroke-width:0.5;"></path><text fill="#000000" font-family="sans-serif" font-size="14" lengthAdjust="spacing" textLength="100" x="198.43" y="252.8451">ESP 32 Device</text></g><!--entity RS--><g id="elem_RS"><ellipse cx="248.43" cy="299.35" fill="#F1F1F1" rx="8" ry="8" style="stroke:#181818;stroke-width:0.5;"></ellipse><path d="M248.43,307.35 L248.43,334.35 M235.43,315.35 L261.43,315.35 M248.43,334.35 L235.43,349.35 M248.43,334.35 L261.43,349.35 " fill="none" style="stroke:#181818;stroke-width:0.5;"></path><text fill="#000000" font-family="sans-serif" font-size="14" lengthAdjust="spacing" textLength="108" x="194.43" y="363.8451">Remote Sensor</text></g><!--entity FB--><g id="elem_FB"><ellipse cx="1405.27" cy="186.35" fill="#F1F1F1" rx="8" ry="8" style="stroke:#181818;stroke-width:0.5;"></ellipse><path d="M1405.27,194.35 L1405.27,221.35 M1392.27,202.35 L1418.27,202.35 M1405.27,221.35 L1392.27,236.35 M1405.27,221.35 L1418.27,236.35 " fill="none" style="stroke:#181818;stroke-width:0.5;"></path><text fill="#000000" font-family="sans-serif" font-size="14" lengthAdjust="spacing" textLength="64" x="1373.27" y="250.8451">Fire Base</text></g><!--link U to UL--><g id="link_U_UL"><path d="M71.24,68.41 C87.9,76.34 115.47,88.99 140,98 C161.19,105.79 179.4576,111.4531 199.4176,117.1131 " fill="none" id="U-to-UL" style="stroke:#181818;stroke-width:1.0;"></path><polygon fill="#181818" points="205.19,118.75,197.6226,112.4464,200.3797,117.3859,195.4401,120.143,205.19,118.75" style="stroke:#181818;stroke-width:1.0;"></polygon></g><!--link U to AS--><g id="link_U_AS"><path d="M71.34,61 C91.57,61 122.7,61 157.67,61 " fill="none" id="U-to-AS" style="stroke:#181818;stroke-width:1.0;"></path><polygon fill="#181818" points="163.67,61,154.67,57,158.67,61,154.67,65,163.67,61" style="stroke:#181818;stroke-width:1.0;"></polygon></g><!--link AS to SI--><g id="link_AS_SI"><path d="M302.7,76.09 C338.84,86.32 380.6572,98.1644 416.7272,108.3844 " fill="none" id="AS-to-SI" style="stroke:#181818;stroke-width:1.0;"></path><polygon fill="#181818" points="422.5,110.02,414.9313,103.718,417.6894,108.657,412.7504,111.415,422.5,110.02" style="stroke:#181818;stroke-width:1.0;"></polygon></g><!--link SI to C--><g id="link_SI_C"><path d="M560.18,124.65 C579.41,124.57 594.02,124.5044 613.67,124.4244 " fill="none" id="SI-to-C" style="stroke:#181818;stroke-width:1.0;"></path><polygon fill="#181818" points="619.67,124.4,610.6538,120.4367,614.67,124.4204,610.6864,128.4366,619.67,124.4" style="stroke:#181818;stroke-width:1.0;"></polygon></g><!--link C to SM--><g id="link_C_SM"><path d="M808.42,124 C828.07,124 842.7,124 862.03,124 " fill="none" id="C-to-SM" style="stroke:#181818;stroke-width:1.0;"></path><polygon fill="#181818" points="868.03,124,859.03,120,863.03,124,859.03,128,868.03,124" style="stroke:#181818;stroke-width:1.0;"></polygon></g><!--link SM to UI--><g id="link_SM_UI"><path d="M1039.91,124 C1059.39,124 1074.06,124 1093.38,124 " fill="none" id="SM-to-UI" style="stroke:#181818;stroke-width:1.0;"></path><polygon fill="#181818" points="1099.38,124,1090.38,120,1094.38,124,1090.38,128,1099.38,124" style="stroke:#181818;stroke-width:1.0;"></polygon></g><!--link UI to FS--><g id="link_UI_FS"><path d="M1263.84,124 C1283.12,124 1297.69,124 1316.97,124 " fill="none" id="UI-to-FS" style="stroke:#181818;stroke-width:1.0;"></path><polygon fill="#181818" points="1322.97,124,1313.97,120,1317.97,124,1313.97,128,1322.97,124" style="stroke:#181818;stroke-width:1.0;"></polygon></g><!--link FS to RM--><g id="link_FS_RM"><path d="M1487.4,124 C1506.72,124 1521.4,124 1540.89,124 " fill="none" id="FS-to-RM" style="stroke:#181818;stroke-width:1.0;"></path><polygon fill="#181818" points="1546.89,124,1537.89,120,1541.89,124,1537.89,128,1546.89,124" style="stroke:#181818;stroke-width:1.0;"></polygon></g><!--link RM to DL--><g id="link_RM_DL"><path d="M1718.99,124 C1738.69,124 1753.42,124 1772.31,124 " fill="none" id="RM-to-DL" style="stroke:#181818;stroke-width:1.0;"></path><polygon fill="#181818" points="1778.31,124,1769.31,120,1773.31,124,1769.31,128,1778.31,124" style="stroke:#181818;stroke-width:1.0;"></polygon></g><!--link DL to ULO--><g id="link_DL_ULO"><path d="M1917.64,124 C1936.95,124 1951.9,124 1971.04,124 " fill="none" id="DL-to-ULO" style="stroke:#181818;stroke-width:1.0;"></path><polygon fill="#181818" points="1977.04,124,1968.04,120,1972.04,124,1968.04,128,1977.04,124" style="stroke:#181818;stroke-width:1.0;"></polygon></g><!--link SA to UL--><g id="link_SA_UL"><path d="M104.3,161.4 C133.88,154.91 165.6694,147.9359 194.9294,141.5159 " fill="none" id="SA-to-UL" style="stroke:#181818;stroke-width:1.0;"></path><polygon fill="#181818" points="200.79,140.23,191.1419,138.2518,195.9062,141.3016,192.8564,146.0659,200.79,140.23" style="stroke:#181818;stroke-width:1.0;"></polygon></g><!--link ESP to SI--><g id="link_ESP_SI"><path d="M298.74,197.71 C339.39,180.98 390.8215,159.8134 428.9715,144.1134 " fill="none" id="ESP-to-SI" style="stroke:#181818;stroke-width:1.0;"></path><polygon fill="#181818" points="434.52,141.83,424.675,141.5561,429.8962,143.7328,427.7195,148.9541,434.52,141.83" style="stroke:#181818;stroke-width:1.0;"></polygon></g><!--link RS to SI--><g id="link_RS_SI"><path d="M302.78,296.41 C313.06,289.42 323.53,281.78 332.85,274 C383.17,232.04 430.5267,178.5123 455.6567,148.7823 " fill="none" id="RS-to-SI" style="stroke:#181818;stroke-width:1.0;"></path><polygon fill="#181818" points="459.53,144.2,450.6652,148.4913,456.3022,148.0186,456.7749,153.6557,459.53,144.2" style="stroke:#181818;stroke-width:1.0;"></polygon></g><!--link FB to RM--><g id="link_FB_RM"><path d="M1437.64,203.21 C1477.23,187.06 1539.914,161.4952 1584.064,143.4952 " fill="none" id="FB-to-RM" style="stroke:#181818;stroke-width:1.0;"></path><polygon fill="#181818" points="1589.62,141.23,1579.7759,140.9238,1584.99,143.1177,1582.7961,148.3318,1589.62,141.23" style="stroke:#181818;stroke-width:1.0;"></polygon></g><!--SRC=[RP9DReCm48Ntd6AKLRl8fjrN8acf8e5ION602Ko9bTYEx4cbjEhTwnz8GEqAupSpxvi79_fWO0DMzWU6JbfgMHgTkQFKPxIeu8pj4NiIV3qH11brVw8imvQDXSQH1NJG3EyBSNLC2l9EIRq8YiX7wLMym_CJREXJjXGrVpEADId318AqCpQAjHYrmcF12brgAbPPTkFmKrkpadef55g6DxHx3miLQlzGf1aIq0A-Cu2BezQFWKN4Baq_C3RbLCmlR1GoTI2CPQdxM9EBQKtYXArcwYs6oDAossdHsYYV8GSCFCclUzbwDYgPG4Nj0RLqAasg_l06C_k1BS53itrCu3E_WgZR-yzrspcaDSCUKgwCbZxPSRLwvhL1nf1DFygRyh_ep8M7x7QPrnjOBbzIaEaOyyf5FCTOn3QUm-xhT1jiHPKQGqMJAY9oaJeZMfrg8iUc78nseJc_kuQ_w-PLJtoBrJZfvnS0]--></g></svg>